<?xml version="1.0" encoding="UTF-8" standalone="no"?>
<!-- Created with Inkscape (http://www.inkscape.org/) -->

<svg
   xmlns:dc="http://purl.org/dc/elements/1.1/"
   xmlns:cc="http://creativecommons.org/ns#"
   xmlns:rdf="http://www.w3.org/1999/02/22-rdf-syntax-ns#"
   xmlns:svg="http://www.w3.org/2000/svg"
   xmlns="http://www.w3.org/2000/svg"
   xmlns:sodipodi="http://sodipodi.sourceforge.net/DTD/sodipodi-0.dtd"
   xmlns:inkscape="http://www.inkscape.org/namespaces/inkscape"
   width="210mm"
   height="297mm"
   viewBox="0 0 210 297"
   version="1.1"
   id="svg8"
   inkscape:version="0.92.3 (2405546, 2018-03-11)"
   sodipodi:docname="logoAlix.svg">
  <defs
     id="defs2">
    <inkscape:perspective
       sodipodi:type="inkscape:persp3d"
       inkscape:vp_x="0 : 148.5 : 1"
       inkscape:vp_y="0 : 1000 : 0"
       inkscape:vp_z="210 : 148.5 : 1"
       inkscape:persp3d-origin="105 : 99 : 1"
       id="perspective3713" />
  </defs>
  <sodipodi:namedview
     id="base"
     pagecolor="#ffffff"
     bordercolor="#666666"
     borderopacity="1.0"
     inkscape:pageopacity="0.0"
     inkscape:pageshadow="2"
     inkscape:zoom="0.35"
     inkscape:cx="35.592238"
     inkscape:cy="560"
     inkscape:document-units="mm"
     inkscape:current-layer="layer1"
     showgrid="false"
     inkscape:window-width="1024"
     inkscape:window-height="705"
     inkscape:window-x="-8"
     inkscape:window-y="-8"
     inkscape:window-maximized="1" />
  <metadata
     id="metadata5">
    <rdf:RDF>
      <cc:Work
         rdf:about="">
        <dc:format>image/svg+xml</dc:format>
        <dc:type
           rdf:resource="http://purl.org/dc/dcmitype/StillImage" />
        <dc:title></dc:title>
      </cc:Work>
    </rdf:RDF>
  </metadata>
  <g
     inkscape:label="Capa 1"
     inkscape:groupmode="layer"
     id="layer1">
    <g
       sodipodi:type="inkscape:box3d"
       id="g3715"
       inkscape:perspectiveID="#perspective3713"
       inkscape:corner0="1.5727197 : 0.070878098 : 0 : 1"
       inkscape:corner7="-0.27530948 : 0.031787163 : 0.25 : 1">
      <path
         sodipodi:type="inkscape:box3dside"
         id="path3717"
         style="fill:#353564;fill-rule:evenodd;stroke:none;stroke-linejoin:round"
         inkscape:box3dsidetype="6"
         d="m 40.812842,140.19047 v 15.1944 l 14.98441,-0.60977 v -13.84868 z"
         points="40.812842,155.38487 55.797252,154.7751 55.797252,140.92642 40.812842,140.19047 " />
      <path
         sodipodi:type="inkscape:box3dside"
         id="path3725"
         style="fill:#afafde;fill-rule:evenodd;stroke:none;stroke-linejoin:round"
         inkscape:box3dsidetype="13"
         d="M 40.812842,155.38487 144.88944,172.94194 161.58976,166.67278 55.797252,154.7751 Z"
         points="144.88944,172.94194 161.58976,166.67278 55.797252,154.7751 40.812842,155.38487 " />
      <path
         sodipodi:type="inkscape:box3dside"
         id="path3727"
         style="fill:#e9e9ff;fill-rule:evenodd;stroke:none;stroke-linejoin:round"
         inkscape:box3dsidetype="11"
         d="M 55.797252,140.92642 161.58976,126.56679 v 40.10599 L 55.797252,154.7751 Z"
         points="161.58976,126.56679 161.58976,166.67278 55.797252,154.7751 55.797252,140.92642 " />
      <path
         sodipodi:type="inkscape:box3dside"
         id="path3719"
         style="fill:#4d4d9f;fill-rule:evenodd;stroke:none;stroke-linejoin:round"
         inkscape:box3dsidetype="5"
         d="m 40.812842,140.19047 104.076598,-21.19009 16.70032,7.56641 -105.792508,14.35963 z"
         points="144.88944,119.00038 161.58976,126.56679 55.797252,140.92642 40.812842,140.19047 " />
      <path
         sodipodi:type="inkscape:box3dside"
         id="path3723"
         style="fill:#d7d7ff;fill-rule:evenodd;stroke:none;stroke-linejoin:round"
         inkscape:box3dsidetype="14"
         d="m 144.88944,119.00038 v 53.94156 l 16.70032,-6.26916 v -40.10599 z"
         points="144.88944,172.94194 161.58976,166.67278 161.58976,126.56679 144.88944,119.00038 " />
    </g>
    <flowRoot
       xml:space="preserve"
       id="flowRoot3813"
       style="font-style:normal;font-weight:normal;font-size:74.66666761px;line-height:1.25;font-family:Pristina;letter-spacing:0px;word-spacing:0px;fill:#000000;fill-opacity:1;stroke:none;-inkscape-font-specification:Pristina;font-stretch:normal;font-variant:normal;"
       transform="scale(0.26458333)"><flowRegion
         id="flowRegion3815"
         style="-inkscape-font-specification:Pristina;font-family:Pristina;font-weight:normal;font-style:normal;font-stretch:normal;font-variant:normal;font-size:74.66666761px;"><rect
           id="rect3817"
           width="271.96988"
           height="94.806519"
           x="282.31583"
           y="528.23395"
           style="font-style:normal;font-variant:normal;font-weight:normal;font-stretch:normal;font-size:74.66666412px;font-family:Pristina;-inkscape-font-specification:Pristina" /></flowRegion><flowPara
         id="flowPara3819">ADMS</flowPara></flowRoot>    <path
       style="fill:#cccccc;stroke-width:2.85714293"
       d="m 382.16367,604.34635 c -86.42857,-9.9687 -160.08396,-18.18637 -163.67865,-18.2615 -6.38673,-0.13348 -6.51705,-0.73545 -5.71428,-26.39544 l 0.8215,-26.25886 162.85714,-22.18193 c 89.57143,-12.20007 165.10714,-22.24072 167.85714,-22.31258 4.62378,-0.12081 5,4.92163 5,67.01222 0,62.15888 -0.37114,67.11985 -5,66.83293 -2.75,-0.17046 -75.71428,-8.46614 -162.14285,-18.43484 z M 294.2179,587.02776 c 4.35288,-1.16692 6.14386,-3.61729 5.71429,-7.81813 -0.50866,-4.97426 1.11091,-6.28595 8.66005,-7.01382 8.65022,-0.83404 9.28571,-0.29632 9.28571,7.85714 0,9.27179 1.64774,10.39667 8.57143,5.85156 3.5613,-2.33785 3.62858,-3.23715 0.39802,-5.32034 -2.94352,-1.8981 -3.37772,-6.23497 -1.78785,-17.85714 1.15493,-8.44261 3.194,-18.24306 4.53127,-21.77877 2.97668,-7.87025 3.0512,-7.86941 -20.08288,-0.22652 -22.65818,7.48568 -21.12292,6.39351 -18.88757,13.43648 1.81954,5.73285 1.88431,5.73473 7.40373,0.21531 5.76709,-5.76708 11.28242,-7.32923 11.28242,-3.19559 0,1.3049 -6.42066,9.34062 -14.26814,17.85715 -18.12927,19.67489 -18.26582,22.66942 -0.82048,17.99267 z m 58.62115,-0.71805 c 4.24298,2.27077 6.86989,1.74592 11.39438,-2.27658 7.57266,-6.73248 16.35839,-25.88787 16.43892,-35.84149 0.10568,-13.06478 -17.12567,-18.24276 -28.85864,-8.67195 -3.37126,2.75 -9.25322,7.57519 -13.07102,10.72266 -4.69241,3.86851 -6.32084,7.33995 -5.02598,10.71428 2.31309,6.02782 7.01839,6.61413 7.01839,0.87453 0,-2.2644 1.4232,-4.99668 3.16266,-6.07173 2.218,-1.3708 2.54092,0.9257 1.0811,7.68853 -1.14486,5.30373 -3.21092,10.07173 -4.59124,10.59553 -2.96789,1.12628 -3.35569,10.10636 -0.55729,12.90477 1.07381,1.07381 3.19935,0.70541 4.72342,-0.81866 1.78995,-1.78995 4.72336,-1.72618 8.2853,0.18012 z m 44.8493,-0.25997 c 2.83196,-1.51562 5.94662,-6.74369 6.92147,-11.61793 2.10278,-10.5139 6.54859,-8.8753 9.78272,3.60563 2.44099,9.42007 9.1997,14.40801 9.1997,6.7894 0,-2.45012 2.68991,-8.6644 5.97759,-13.80953 l 5.97759,-9.35477 -1.67764,11.84264 c -1.26037,8.89714 -0.63799,12.24159 2.50234,13.44665 5.69674,2.18604 7.91528,-2.29986 7.73128,-15.63262 -0.17222,-12.47818 6.48663,-31.08524 11.12437,-31.08524 1.64308,0 2.19281,-1.28571 1.22161,-2.85714 -3.88051,-6.2788 -9.8855,-2.00845 -22.14598,15.74878 l -12.84647,18.60592 -3.83369,-9.25536 c -2.10854,-5.09044 -3.45976,-12.82025 -3.00273,-17.17735 0.45703,-4.35709 -0.55165,-7.92199 -2.24151,-7.92199 -1.68986,0 -3.07248,2.21465 -3.07248,4.92144 0,4.04538 -0.79174,3.79108 -4.44772,-1.42857 -5.34453,-7.63038 -12.12019,-8.15945 -17.28929,-1.35001 -5.64967,7.44251 -4.76083,9.90611 2.22511,6.16734 5.13984,-2.75075 6.85297,-2.42969 10,1.87414 2.08869,2.85645 3.79762,6.83276 3.79762,8.83624 0,5.38361 -9.25703,23.83656 -11.95775,23.83656 -1.28038,0 -2.32797,1.92857 -2.32797,4.28572 0,5.01476 1.39482,5.26937 8.38183,1.53004 z m 83.02503,-1.50388 c 3.87836,-4.67314 2.77108,-14.91266 -3.18363,-29.44043 -3.32174,-8.10406 -3.2678,-9.78791 0.38757,-12.0991 6.76463,-4.27709 9.06189,-3.22843 7.02014,3.20456 -1.51093,4.76051 -0.82327,5.77216 3.37889,4.97082 6.51946,-1.24326 8.74575,-13.2009 2.87701,-15.45295 -5.10594,-1.95933 -21.5824,6.10165 -23.6882,11.58927 -0.82905,2.16047 1.15519,9.94727 4.40942,17.304 8.88728,20.09116 2.97974,25.05516 -11.44312,9.61544 -7.25217,-7.76347 -8.50765,-8.23574 -10.19619,-3.83548 -1.32689,3.45782 0.49367,7.09919 5.85498,11.7108 8.87574,7.63458 19.40165,8.67636 24.58313,2.43307 z"
       id="path3837"
       inkscape:connector-curvature="0"
       transform="scale(0.26458333)" />
    <path
       style="fill:#cccccc;stroke-width:2.85714293"
       d="m 348.09356,573.8054 c 6.73999,-21.35194 9.57906,-26.7782 15.60511,-29.82576 12.98329,-6.56606 13.58567,-0.057 2.23137,24.11147 -4.45579,9.48447 -7.25481,12.14286 -12.78521,12.14286 -6.03926,0 -6.7821,-0.94538 -5.05127,-6.42857 z"
       id="path3839"
       inkscape:connector-curvature="0"
       transform="scale(0.26458333)" />
    <path
       style="fill:#000080;stroke-width:2.85714293"
       d="m 549.29533,639.51969 c -0.1279,-21.28964 -0.1279,-144.58512 0,-171.42858 0.0543,-11.39285 1.07251,-19.18264 2.26273,-17.31063 2.72249,4.282 51.16949,26.7176 55.77053,25.82709 2.55519,-0.49454 3.59649,18.79781 4.16671,77.19783 0.78298,80.18939 0.87319,79.48832 -10.04592,78.07042 -1.96428,-0.25508 -3.57143,0.83795 -3.57143,2.42895 0,1.59099 -1.76279,2.21627 -3.91731,1.3895 -2.15453,-0.82677 -5.70172,0.28117 -7.88266,2.46212 -2.18093,2.18094 -5.561,3.43345 -7.51125,2.78336 -1.95026,-0.65008 -3.54592,0.17054 -3.54592,1.8236 0,1.65306 -1.76279,2.32912 -3.91732,1.50235 -2.15452,-0.82677 -5.8586,0.43807 -8.23129,2.81076 -2.37269,2.37269 -5.1798,3.44815 -6.23803,2.38991 -1.05824,-1.05823 -3.12018,-0.0327 -4.5821,2.27892 -1.82332,2.88308 -2.68904,-0.95621 -2.75674,-12.2256 z"
       id="path3841"
       inkscape:connector-curvature="0"
       transform="scale(0.26458333)" />
    <path
       sodipodi:type="star"
       style="fill:#ffff00;stroke-width:0.26458332"
       id="path3860"
       sodipodi:sides="5"
       sodipodi:cx="56.512947"
       sodipodi:cy="141.13683"
       sodipodi:r1="5.76194e-006"
       sodipodi:r2="13.657035"
       sodipodi:arg1="1.7383917"
       sodipodi:arg2="1.6232252"
       inkscape:flatsided="false"
       inkscape:rounded="0"
       inkscape:randomized="0"
       d="m 56.512946,141.13684 -0.715694,13.63826 0.715689,-13.63827 -13.19192,3.53379 13.191924,-3.53379 -7.437362,-11.45427 7.437368,11.45427 8.595379,-10.61292 -8.595378,10.61292 12.749598,4.89512 z"
       inkscape:transform-center-x="-0.12194121"
       inkscape:transform-center-y="0.93440672" />
    <path
       sodipodi:type="star"
       style="fill:#008080;stroke-width:0.26458332"
       id="path3864"
       sodipodi:sides="5"
       sodipodi:cx="56.512947"
       sodipodi:cy="141.13683"
       sodipodi:r1="69.265633"
       sodipodi:r2="0.69265634"
       sodipodi:arg1="-0.58791479"
       sodipodi:arg2="0.040403739"
       inkscape:flatsided="false"
       inkscape:rounded="0"
       inkscape:randomized="0"
       d="M 114.14881,102.72023 57.205038,141.1648 110.85977,184.08041 56.700206,141.80369 32.465264,206.09402 55.936588,141.52099 -12.696156,138.339 55.969479,140.70739 37.787052,74.45048 56.753424,140.48725 Z"
       inkscape:transform-center-x="5.7866205"
       inkscape:transform-center-y="-0.86457854" />
    <path
       sodipodi:type="star"
       style="fill:#ffff00;stroke-width:0.26458332"
       id="path3866"
       sodipodi:sides="5"
       sodipodi:cx="56.753422"
       sodipodi:cy="140.48726"
       sodipodi:r1="74.981773"
       sodipodi:r2="0.74981773"
       sodipodi:arg1="0.92209909"
       sodipodi:arg2="1.5504176"
       inkscape:flatsided="false"
       inkscape:rounded="0"
       inkscape:randomized="0"
       d="M 102.05357,200.2381 56.768701,141.23692 13.92551,202.03428 56.045172,140.73345 -15.01583,118.77457 56.30042,139.88975 55.225496,65.521055 57.181701,139.87179 127.57836,115.86828 57.471114,140.70439 Z"
       inkscape:transform-center-x="0.47215571"
       inkscape:transform-center-y="-6.7095912" />
  </g>
</svg>
